{"title":"[GR HARDSUBBED] Night.Of.The.Living.Dead.1968.DVDRip.x264-GRRiPS","uid":8557933,"size":838133585,"categoryP":"video","categoryS":"movies_dvdr","magnet":"?xt=urn:btih:37602ee01965550a69aa4c48a518014baa89f162&amp;dn=%5BGR+HARDSUBBED%5D+Night.Of.The.Living.Dead.1968.DVDRip.x264-GRRiPS&amp;tr=udp%3A%2F%2Ftracker.openbittorrent.com%3A80&amp;tr=udp%3A%2F%2Fopen.demonii.com%3A1337&amp;tr=udp%3A%2F%2Ftracker.coppersurfer.tk%3A6969&amp;tr=udp%3A%2F%2Fexodus.desync.com%3A6969","seeders":1,"leechers":0,"uploader":"GRRiPS","files":-1,"time":1370811202,"description":"----------------------------------------------------------------------------\n** PLEASE BE ADVICED: DO NOT DOWNLOAD THIS IF YOU CAN'T SPEAK/READ GREEK **\n----------------------------------------------------------------------------\n\n------------------------------------------------------\n** The movie contain GREEK -HARDSUBBED- subtitles! **\n------------------------------------------------------\n\nGeneral\nComplete name                            : Night.Of.The.Living.Dead.1968.DVDRip.x264-GRRiPS.mp4\nFormat                                   : MPEG-4\nFormat profile                           : Base Media\nCodec ID                                 : isom\nFile size                                : 799 MiB\nDuration                                 : 1h 36mn\nOverall bit rate mode                    : Variable\nOverall bit rate                         : 1 162 Kbps\n\nVideo\nID                                       : 1\nFormat                                   : AVC\nFormat/Info                              : Advanced Video Codec\nFormat profile                           : &lt;a class=&quot;__cf_email__&quot; href=&quot;/cdn-cgi/l/email-protection&quot; data-cfemail=&quot;0a42636d624a463e243a&quot;&gt;[email&amp;#160;protected]&lt;/a&gt;&lt;script cf-hash='f9e31' type=&quot;text/javascript&quot;&gt;\n/* &lt;![CDATA[ */!function(){try{var t=&quot;currentScript&quot;in document?document.currentScript:function(){for(var t=document.getElementsByTagName(&quot;script&quot;),e=t.length;e--;)if(t[e].getAttribute(&quot;cf-hash&quot;))return t[e]}();if(t&amp;&amp;t.previousSibling){var e,r,n,i,c=t.previousSibling,a=c.getAttribute(&quot;data-cfemail&quot;);if(a){for(e=&quot;&quot;,r=parseInt(a.substr(0,2),16),n=2;a.length-n;n+=2)i=parseInt(a.substr(n,2),16)^r,e+=String.fromCharCode(i);e=document.createTextNode(e),c.parentNode.replaceChild(e,c)}}}catch(u){}}();/* ]]&gt; */&lt;/script&gt;\nFormat settings, CABAC                   : Yes\nFormat settings, ReFrames                : 3 frames\nCodec ID                                 : avc1\nCodec ID/Info                            : Advanced Video Coding\nDuration                                 : 1h 36mn\nBit rate mode                            : Variable\nBit rate                                 : 1 031 Kbps\nMaximum bit rate                         : 25.0 Mbps\nWidth                                    : 692 pixels\nHeight                                   : 558 pixels\nDisplay aspect ratio                     : 5:4\nFrame rate mode                          : Constant\nFrame rate                               : 25.000 fps\nColor space                              : YUV\nChroma subsampling                       : 4:2:0\nBit depth                                : 8 bits\nScan type                                : Progressive\nBits/(Pixel*Frame)                       : 0.107\nStream size                              : 709 MiB (89%)\nWriting library                          : x264 core 129 r2245 bc13772\n\nAudio\nID                                       : 2\nFormat                                   : AAC\nFormat/Info                              : Advanced Audio Codec\nFormat profile                           : LC\nCodec ID                                 : 40\nDuration                                 : 1h 36mn\nBit rate mode                            : Variable\nBit rate                                 : 128 Kbps\nMaximum bit rate                         : 136 Kbps\nChannel(s)                               : 2 channels\nChannel positions                        : Front: L R\nSampling rate                            : 48.0 KHz\nCompression mode                         : Lossy\nStream size                              : 88.1 MiB (11%)\n\nDIKO MOU RIP.\n\nFULL SCREENSHOT: &lt;a href=&quot;\nhttp://bayimg.com/FanJAAaEc&quot; rel=&quot;nofollow&quot; target=&quot;_NEW&quot;&gt;\nhttp://bayimg.com/FanJAAaEc&lt;/a&gt;\n\nKALH PROBOLH KAI S E E D ! ! ! !\n\n-------------------------------------------------------\n|PERISSOTERA/MORE: https://thepiratebay.se/user/GRRiPS|\n-------------------------------------------------------","torrent":{"xt":"urn:btih:37602ee01965550a69aa4c48a518014baa89f162","amp;dn":"%5BGR+HARDSUBBED%5D+Night.Of.The.Living.Dead.1968.DVDRip.x264-GRRiPS","amp;tr":["udp%3A%2F%2Ftracker.openbittorrent.com%3A80","udp%3A%2F%2Fopen.demonii.com%3A1337","udp%3A%2F%2Ftracker.coppersurfer.tk%3A6969","udp%3A%2F%2Fexodus.desync.com%3A6969"],"infoHash":"37602ee01965550a69aa4c48a518014baa89f162","infoHashBuffer":{"type":"Buffer","data":[55,96,46,224,25,101,85,10,105,170,76,72,165,24,1,75,170,137,241,98]},"announce":[],"urlList":[]}}